<?xml version="1.0" encoding="UTF-8"?>
<svg width="752pt" height="752pt" version="1.1" viewBox="0 0 752 752" xmlns="http://www.w3.org/2000/svg">
 <defs>
  <clipPath id="d">
   <path d="m272 414h272v142h-272z"/>
  </clipPath>
  <clipPath id="c">
   <path d="m208.56 85.992 457.45 122.57-122.57 457.45-457.45-122.57z"/>
  </clipPath>
  <clipPath id="b">
   <path d="m118 203h512v316h-512z"/>
  </clipPath>
  <clipPath id="a">
   <path d="m208.56 85.992 457.45 122.57-122.57 457.45-457.45-122.57z"/>
  </clipPath>
 </defs>
 <path d="m752 376c0 134.33-71.664 258.46-188 325.62-116.34 67.168-259.66 67.168-376 0-116.34-67.164-188-191.29-188-325.62s71.664-258.46 188-325.62c116.34-67.168 259.66-67.168 376 0 116.34 67.164 188 191.29 188 325.62" fill="#4c25e0"/>
 <g clip-path="url(#d)">
  <g clip-path="url(#c)">
   <path d="m543.64 414.55 0.12109-0.45703c-37.309 25.793-81.816 49.168-130.28 69.031-48.344 19.406-97.172 33.289-141.41 41.043 48.371 33.555 110.29 40.34 165.23 18.289 54.602-22.629 94.469-70.781 106.34-127.91z" fill="#fff"/>
  </g>
 </g>
 <g clip-path="url(#b)">
  <g clip-path="url(#a)">
   <path d="m548.3 397.16c60.82-44.008 90.16-87.629 78.57-115.74-7.7266-18.738-31.602-26.609-50.391-29.684-1.8281-0.49219-3.4141-1.8945-4.418-3.6367-0.33594-0.57812-0.66797-1.1602-0.54688-1.6172-6.1758-15.383-27.273-24.469-59.18-26.152 4.2969 4.0938 7.4336 8.8555 9.4102 14.289 1.2188 2.7773 1.8555 5.8906 2.4922 9.0039l-0.12109 0.45703c0.39062 4.0273 1.0195 14.492-3.6602 26.477-5.1719 13.812-15.074 28.809-29.918 43.953-69.301 70.172-177.09 106.5-178.31 103.72-1.2188-2.7773 95.676-33.199 170.51-111.2 12.859-13.223 21.566-25.598 26.707-37.461-0.45703-0.12109-0.33594-0.57812-0.79297-0.70312-0.66797-1.1602-1.918-1.9844-2.5898-3.1445 0 0-0.33594-0.57812-0.33594-0.57812-48.895-57.227-129.19-77.762-199.63-49.078-89.641 36.285-133.75 138.7-97.59 228.8 1.4297 3.8164 3.3164 7.7539 5.2031 11.691 42.004 2.4297 107.95-11.281 173.54-38.32 127.36-52.652 172.72-126.79 176.05-126.39 2.7461 0.73438-35.941 81.074-171.85 136.34-69.406 28.469-137.42 42.605-181.59 39.105l-0.45703-0.12109c-31.082-2.9336-41.809-14.145-45.668-23.516-6.8438-16.543 7.6406-37.664 21.57-53.055l0.12109-0.45703c0.12109-0.45703-0.21094-1.0391 0.03125-1.9531-0.21094-1.0391-0.089844-1.4961-0.30078-2.5312 0.12109-0.45703-0.21094-1.0391 0.03125-1.9531 0.12109-0.45703-0.21094-1.0391-0.089844-1.4961-50.535 40.391-74.621 79.043-64.582 103.8 11.465 28.566 62.52 39.305 136.91 28.84 47.324-6.4414 99.719-20.84 152-42.129 52.277-21.297 100.39-47.141 138.89-75.555z" fill="#fff"/>
  </g>
 </g>
</svg>
