<svg id="svgQrWrapper" viewBox="0 0 300 300" xmlns="http://www.w3.org/2000/svg" xmlns:xlink="http://www.w3.org/1999/xlink" width="300" height="300" style="width: 100%; height: 100%; background-color: rgb(255, 255, 255);"><svg><g transform="translate(9, 9)scale(0.95)" fill="none"><svg width="300" height="300"><style>.dot-color{ fill: #000000; }.corners-square-color-0-0{ fill: #000000; }.corners-dot-color-0-0{ fill: #000000; }.corners-square-color-1-0{ fill: #000000; }.corners-dot-color-1-0{ fill: #000000; }.corners-square-color-0-1{ fill: #000000; }.corners-dot-color-0-1{ fill: #000000; }</style><defs><linearGradient id="background-color" gradientUnits="userSpaceOnUse" x1="0" y1="150" x2="300" y2="150"><stop offset="0%" stop-color="#ffffff"/><stop offset="100%" stop-color="#ffffff"/></linearGradient></defs><rect x="0" y="0" height="300" width="300" clip-path="url('#clip-path-background-color')" fill="url('#background-color')"/><g class="dot-color"><path d="M 5 95v 10h 10a 10 10, 0, 0, 0, -10 -10" transform="rotate(-90,10,100)"/><rect x="5" y="105" width="10" height="10" transform="rotate(0,10,110)"/><path d="M 5 115v 10h 10a 10 10, 0, 0, 0, -10 -10" transform="rotate(180,10,120)"/><circle cx="10" cy="150" r="5" transform="rotate(0,10,150)"/><path d="M 5 175v 10h 5a 5 5, 0, 0, 0, 0 -10" transform="rotate(180,10,180)"/><path d="M 5 195v 10h 5a 5 5, 0, 0, 0, 0 -10" transform="rotate(-90,10,200)"/><path d="M 5 205v 10h 10a 10 10, 0, 0, 0, -10 -10" transform="rotate(180,10,210)"/><path d="M 15 85v 10h 10a 10 10, 0, 0, 0, -10 -10" transform="rotate(-90,20,90)"/><path d="M 15 95v 10h 10a 10 10, 0, 0, 0, -10 -10" transform="rotate(90,20,100)"/><path d="M 15 115v 10h 5a 5 5, 0, 0, 0, 0 -10" transform="rotate(0,20,120)"/><path d="M 15 155v 10h 10a 10 10, 0, 0, 0, -10 -10" transform="rotate(-90,20,160)"/><rect x="15" y="165" width="10" height="10" transform="rotate(0,20,170)"/><rect x="15" y="175" width="10" height="10" transform="rotate(0,20,180)"/><path d="M 15 185v 10h 10a 10 10, 0, 0, 0, -10 -10" transform="rotate(180,20,190)"/><path d="M 15 205v 10h 5a 5 5, 0, 0, 0, 0 -10" transform="rotate(0,20,210)"/><path d="M 25 85v 10h 5a 5 5, 0, 0, 0, 0 -10" transform="rotate(0,30,90)"/><path d="M 25 125v 10h 10a 10 10, 0, 0, 0, -10 -10" transform="rotate(-90,30,130)"/><rect x="25" y="135" width="10" height="10" transform="rotate(0,30,140)"/><rect x="25" y="145" width="10" height="10" transform="rotate(0,30,150)"/><rect x="25" y="155" width="10" height="10" transform="rotate(0,30,160)"/><path d="M 25 165v 10h 10a 10 10, 0, 0, 0, -10 -10" transform="rotate(90,30,170)"/><path d="M 25 185v 10h 5a 5 5, 0, 0, 0, 0 -10" transform="rotate(0,30,190)"/><path d="M 35 115v 10h 10a 10 10, 0, 0, 0, -10 -10" transform="rotate(-90,40,120)"/><rect x="35" y="125" width="10" height="10" transform="rotate(0,40,130)"/><path d="M 35 135v 10h 10a 10 10, 0, 0, 0, -10 -10" transform="rotate(90,40,140)"/><rect x="35" y="155" width="10" height="10" transform="rotate(0,40,160)"/><path d="M 35 175v 10h 5a 5 5, 0, 0, 0, 0 -10" transform="rotate(180,40,180)"/><path d="M 35 195v 10h 5a 5 5, 0, 0, 0, 0 -10" transform="rotate(180,40,200)"/><circle cx="50" cy="100" r="5" transform="rotate(0,50,100)"/><rect x="45" y="115" width="10" height="10" transform="rotate(0,50,120)"/><rect x="45" y="125" width="10" height="10" transform="rotate(0,50,130)"/><path d="M 45 155v 10h 5a 5 5, 0, 0, 0, 0 -10" transform="rotate(0,50,160)"/><rect x="45" y="175" width="10" height="10" transform="rotate(0,50,180)"/><rect x="45" y="195" width="10" height="10" transform="rotate(0,50,200)"/><path d="M 55 105v 10h 10a 10 10, 0, 0, 0, -10 -10" transform="rotate(-90,60,110)"/><rect x="55" y="115" width="10" height="10" transform="rotate(0,60,120)"/><rect x="55" y="125" width="10" height="10" transform="rotate(0,60,130)"/><path d="M 55 145v 10h 5a 5 5, 0, 0, 0, 0 -10" transform="rotate(180,60,150)"/><path d="M 55 165v 10h 10a 10 10, 0, 0, 0, -10 -10" transform="rotate(-90,60,170)"/><rect x="55" y="175" width="10" height="10" transform="rotate(0,60,180)"/><rect x="55" y="185" width="10" height="10" transform="rotate(0,60,190)"/><path d="M 55 195v 10h 10a 10 10, 0, 0, 0, -10 -10" transform="rotate(90,60,200)"/><circle cx="70" cy="90" r="5" transform="rotate(0,70,90)"/><rect x="65" y="105" width="10" height="10" transform="rotate(0,70,110)"/><path d="M 65 125v 10h 5a 5 5, 0, 0, 0, 0 -10" transform="rotate(0,70,130)"/><path d="M 65 145v 10h 5a 5 5, 0, 0, 0, 0 -10" transform="rotate(0,70,150)"/><path d="M 65 165v 10h 5a 5 5, 0, 0, 0, 0 -10" transform="rotate(0,70,170)"/><path d="M 65 185v 10h 5a 5 5, 0, 0, 0, 0 -10" transform="rotate(0,70,190)"/><circle cx="70" cy="210" r="5" transform="rotate(0,70,210)"/><path d="M 75 95v 10h 5a 5 5, 0, 0, 0, 0 -10" transform="rotate(-90,80,100)"/><rect x="75" y="105" width="10" height="10" transform="rotate(0,80,110)"/><path d="M 75 115v 10h 5a 5 5, 0, 0, 0, 0 -10" transform="rotate(90,80,120)"/><circle cx="80" cy="140" r="5" transform="rotate(0,80,140)"/><circle cx="80" cy="160" r="5" transform="rotate(0,80,160)"/><circle cx="80" cy="180" r="5" transform="rotate(0,80,180)"/><circle cx="80" cy="200" r="5" transform="rotate(0,80,200)"/><path d="M 85 15v 10h 5a 5 5, 0, 0, 0, 0 -10" transform="rotate(-90,90,20)"/><rect x="85" y="25" width="10" height="10" transform="rotate(0,90,30)"/><path d="M 85 35v 10h 5a 5 5, 0, 0, 0, 0 -10" transform="rotate(90,90,40)"/><path d="M 85 55v 10h 5a 5 5, 0, 0, 0, 0 -10" transform="rotate(-90,90,60)"/><path d="M 85 65v 10h 5a 5 5, 0, 0, 0, 0 -10" transform="rotate(90,90,70)"/><rect x="85" y="105" width="10" height="10" transform="rotate(0,90,110)"/><path d="M 85 125v 10h 5a 5 5, 0, 0, 0, 0 -10" transform="rotate(180,90,130)"/><path d="M 85 145v 10h 5a 5 5, 0, 0, 0, 0 -10" transform="rotate(180,90,150)"/><path d="M 85 205v 10h 5a 5 5, 0, 0, 0, 0 -10" transform="rotate(180,90,210)"/><path d="M 85 265v 10h 10a 10 10, 0, 0, 0, -10 -10" transform="rotate(-90,90,270)"/><path d="M 85 275v 10h 5a 5 5, 0, 0, 0, 0 -10" transform="rotate(90,90,280)"/><rect x="95" y="25" width="10" height="10" transform="rotate(0,100,30)"/><circle cx="100" cy="50" r="5" transform="rotate(0,100,50)"/><path d="M 95 75v 10h 10a 10 10, 0, 0, 0, -10 -10" transform="rotate(-90,100,80)"/><path d="M 95 85v 10h 10a 10 10, 0, 0, 0, -10 -10" transform="rotate(180,100,90)"/><rect x="95" y="105" width="10" height="10" transform="rotate(0,100,110)"/><path d="M 95 125v 10h 10a 10 10, 0, 0, 0, -10 -10" transform="rotate(0,100,130)"/><rect x="95" y="135" width="10" height="10" transform="rotate(0,100,140)"/><rect x="95" y="145" width="10" height="10" transform="rotate(0,100,150)"/><rect x="95" y="155" width="10" height="10" transform="rotate(0,100,160)"/><path d="M 95 165v 10h 5a 5 5, 0, 0, 0, 0 -10" transform="rotate(90,100,170)"/><path d="M 95 185v 10h 10a 10 10, 0, 0, 0, -10 -10" transform="rotate(-90,100,190)"/><rect x="95" y="195" width="10" height="10" transform="rotate(0,100,200)"/><path d="M 95 205v 10h 10a 10 10, 0, 0, 0, -10 -10" transform="rotate(90,100,210)"/><path d="M 95 225v 10h 5a 5 5, 0, 0, 0, 0 -10" transform="rotate(180,100,230)"/><path d="M 95 245v 10h 10a 10 10, 0, 0, 0, -10 -10" transform="rotate(-90,100,250)"/><rect x="95" y="255" width="10" height="10" transform="rotate(0,100,260)"/><path d="M 95 265v 10h 10a 10 10, 0, 0, 0, -10 -10" transform="rotate(90,100,270)"/><circle cx="100" cy="290" r="5" transform="rotate(0,100,290)"/><path d="M 105 5v 10h 5a 5 5, 0, 0, 0, 0 -10" transform="rotate(180,110,10)"/><path d="M 105 25v 10h 5a 5 5, 0, 0, 0, 0 -10" transform="rotate(0,110,30)"/><path d="M 105 65v 10h 5a 5 5, 0, 0, 0, 0 -10" transform="rotate(-90,110,70)"/><rect x="105" y="75" width="10" height="10" transform="rotate(0,110,80)"/><rect x="105" y="85" width="10" height="10" transform="rotate(0,110,90)"/><rect x="105" y="95" width="10" height="10" transform="rotate(0,110,100)"/><rect x="105" y="105" width="10" height="10" transform="rotate(0,110,110)"/><path d="M 105 115v 10h 10a 10 10, 0, 0, 0, -10 -10" transform="rotate(180,110,120)"/><rect x="105" y="135" width="10" height="10" transform="rotate(0,110,140)"/><rect x="105" y="155" width="10" height="10" transform="rotate(0,110,160)"/><path d="M 105 175v 10h 5a 5 5, 0, 0, 0, 0 -10" transform="rotate(-90,110,180)"/><rect x="105" y="185" width="10" height="10" transform="rotate(0,110,190)"/><path d="M 105 225v 10h 10a 10 10, 0, 0, 0, -10 -10" transform="rotate(0,110,230)"/><rect x="105" y="235" width="10" height="10" transform="rotate(0,110,240)"/><rect x="105" y="245" width="10" height="10" transform="rotate(0,110,250)"/><path d="M 105 255v 10h 10a 10 10, 0, 0, 0, -10 -10" transform="rotate(90,110,260)"/><circle cx="110" cy="280" r="5" transform="rotate(0,110,280)"/><path d="M 115 5v 10h 10a 10 10, 0, 0, 0, -10 -10" transform="rotate(0,120,10)"/><path d="M 115 15v 10h 5a 5 5, 0, 0, 0, 0 -10" transform="rotate(90,120,20)"/><path d="M 115 45v 10h 10a 10 10, 0, 0, 0, -10 -10" transform="rotate(-90,120,50)"/><path d="M 115 55v 10h 5a 5 5, 0, 0, 0, 0 -10" transform="rotate(90,120,60)"/><path d="M 115 75v 10h 5a 5 5, 0, 0, 0, 0 -10" transform="rotate(0,120,80)"/><path d="M 115 95v 10h 5a 5 5, 0, 0, 0, 0 -10" transform="rotate(0,120,100)"/><rect x="115" y="115" width="10" height="10" transform="rotate(0,120,120)"/><rect x="115" y="125" width="10" height="10" transform="rotate(0,120,130)"/><rect x="115" y="135" width="10" height="10" transform="rotate(0,120,140)"/><rect x="115" y="145" width="10" height="10" transform="rotate(0,120,150)"/><rect x="115" y="155" width="10" height="10" transform="rotate(0,120,160)"/><rect x="115" y="185" width="10" height="10" transform="rotate(0,120,190)"/><rect x="115" y="195" width="10" height="10" transform="rotate(0,120,200)"/><path d="M 115 205v 10h 5a 5 5, 0, 0, 0, 0 -10" transform="rotate(90,120,210)"/><path d="M 115 285v 10h 5a 5 5, 0, 0, 0, 0 -10" transform="rotate(180,120,290)"/><circle cx="130" cy="30" r="5" transform="rotate(0,130,30)"/><path d="M 125 45v 10h 5a 5 5, 0, 0, 0, 0 -10" transform="rotate(0,130,50)"/><circle cx="130" cy="70" r="5" transform="rotate(0,130,70)"/><path d="M 125 115v 10h 10a 10 10, 0, 0, 0, -10 -10" transform="rotate(0,130,120)"/><rect x="125" y="125" width="10" height="10" transform="rotate(0,130,130)"/><rect x="125" y="155" width="10" height="10" transform="rotate(0,130,160)"/><rect x="125" y="165" width="10" height="10" transform="rotate(0,130,170)"/><rect x="125" y="175" width="10" height="10" transform="rotate(0,130,180)"/><path d="M 125 185v 10h 10a 10 10, 0, 0, 0, -10 -10" transform="rotate(90,130,190)"/><circle cx="130" cy="220" r="5" transform="rotate(0,130,220)"/><path d="M 125 235v 10h 5a 5 5, 0, 0, 0, 0 -10" transform="rotate(180,130,240)"/><path d="M 125 265v 10h 10a 10 10, 0, 0, 0, -10 -10" transform="rotate(-90,130,270)"/><rect x="125" y="275" width="10" height="10" transform="rotate(0,130,280)"/><rect x="125" y="285" width="10" height="10" transform="rotate(0,130,290)"/><circle cx="140" cy="10" r="5" transform="rotate(0,140,10)"/><circle cx="140" cy="40" r="5" transform="rotate(0,140,40)"/><path d="M 135 75v 10h 5a 5 5, 0, 0, 0, 0 -10" transform="rotate(180,140,80)"/><path d="M 135 105v 10h 5a 5 5, 0, 0, 0, 0 -10" transform="rotate(180,140,110)"/><path d="M 135 125v 10h 10a 10 10, 0, 0, 0, -10 -10" transform="rotate(0,140,130)"/><path d="M 135 135v 10h 10a 10 10, 0, 0, 0, -10 -10" transform="rotate(180,140,140)"/><path d="M 135 155v 10h 10a 10 10, 0, 0, 0, -10 -10" transform="rotate(0,140,160)"/><rect x="135" y="165" width="10" height="10" transform="rotate(0,140,170)"/><path d="M 135 195v 10h 10a 10 10, 0, 0, 0, -10 -10" transform="rotate(-90,140,200)"/><path d="M 135 205v 10h 10a 10 10, 0, 0, 0, -10 -10" transform="rotate(180,140,210)"/><path d="M 135 225v 10h 10a 10 10, 0, 0, 0, -10 -10" transform="rotate(-90,140,230)"/><rect x="135" y="235" width="10" height="10" transform="rotate(0,140,240)"/><path d="M 135 255v 10h 10a 10 10, 0, 0, 0, -10 -10" transform="rotate(-90,140,260)"/><path d="M 135 265v 10h 10a 10 10, 0, 0, 0, -10 -10" transform="rotate(90,140,270)"/><rect x="135" y="285" width="10" height="10" transform="rotate(0,140,290)"/><path d="M 145 15v 10h 5a 5 5, 0, 0, 0, 0 -10" transform="rotate(180,150,20)"/><path d="M 145 55v 10h 5a 5 5, 0, 0, 0, 0 -10" transform="rotate(-90,150,60)"/><rect x="145" y="65" width="10" height="10" transform="rotate(0,150,70)"/><rect x="145" y="75" width="10" height="10" transform="rotate(0,150,80)"/><path d="M 145 85v 10h 10a 10 10, 0, 0, 0, -10 -10" transform="rotate(180,150,90)"/><rect x="145" y="105" width="10" height="10" transform="rotate(0,150,110)"/><rect x="145" y="135" width="10" height="10" transform="rotate(0,150,140)"/><path d="M 145 145v 10h 10a 10 10, 0, 0, 0, -10 -10" transform="rotate(180,150,150)"/><rect x="145" y="165" width="10" height="10" transform="rotate(0,150,170)"/><rect x="145" y="175" width="10" height="10" transform="rotate(0,150,180)"/><rect x="145" y="185" width="10" height="10" transform="rotate(0,150,190)"/><rect x="145" y="195" width="10" height="10" transform="rotate(0,150,200)"/><path d="M 145 205v 10h 10a 10 10, 0, 0, 0, -10 -10" transform="rotate(90,150,210)"/><rect x="145" y="225" width="10" height="10" transform="rotate(0,150,230)"/><rect x="145" y="235" width="10" height="10" transform="rotate(0,150,240)"/><rect x="145" y="245" width="10" height="10" transform="rotate(0,150,250)"/><rect x="145" y="255" width="10" height="10" transform="rotate(0,150,260)"/><path d="M 145 275v 10h 5a 5 5, 0, 0, 0, 0 -10" transform="rotate(-90,150,280)"/><rect x="145" y="285" width="10" height="10" transform="rotate(0,150,290)"/><rect x="155" y="15" width="10" height="10" transform="rotate(0,160,20)"/><rect x="155" y="25" width="10" height="10" transform="rotate(0,160,30)"/><rect x="155" y="35" width="10" height="10" transform="rotate(0,160,40)"/><path d="M 155 45v 10h 5a 5 5, 0, 0, 0, 0 -10" transform="rotate(90,160,50)"/><rect x="155" y="75" width="10" height="10" transform="rotate(0,160,80)"/><rect x="155" y="85" width="10" height="10" transform="rotate(0,160,90)"/><rect x="155" y="95" width="10" height="10" transform="rotate(0,160,100)"/><path d="M 155 105v 10h 10a 10 10, 0, 0, 0, -10 -10" transform="rotate(90,160,110)"/><rect x="155" y="135" width="10" height="10" transform="rotate(0,160,140)"/><path d="M 155 145v 10h 10a 10 10, 0, 0, 0, -10 -10" transform="rotate(90,160,150)"/><rect x="155" y="165" width="10" height="10" transform="rotate(0,160,170)"/><rect x="155" y="175" width="10" height="10" transform="rotate(0,160,180)"/><rect x="155" y="185" width="10" height="10" transform="rotate(0,160,190)"/><path d="M 155 215v 10h 10a 10 10, 0, 0, 0, -10 -10" transform="rotate(-90,160,220)"/><path d="M 155 225v 10h 10a 10 10, 0, 0, 0, -10 -10" transform="rotate(90,160,230)"/><path d="M 155 245v 10h 10a 10 10, 0, 0, 0, -10 -10" transform="rotate(0,160,250)"/><rect x="155" y="255" width="10" height="10" transform="rotate(0,160,260)"/><path d="M 155 285v 10h 5a 5 5, 0, 0, 0, 0 -10" transform="rotate(0,160,290)"/><rect x="165" y="15" width="10" height="10" transform="rotate(0,170,20)"/><rect x="165" y="25" width="10" height="10" transform="rotate(0,170,30)"/><rect x="165" y="35" width="10" height="10" transform="rotate(0,170,40)"/><path d="M 165 65v 10h 5a 5 5, 0, 0, 0, 0 -10" transform="rotate(-90,170,70)"/><rect x="165" y="75" width="10" height="10" transform="rotate(0,170,80)"/><rect x="165" y="95" width="10" height="10" transform="rotate(0,170,100)"/><path d="M 165 115v 10h 5a 5 5, 0, 0, 0, 0 -10" transform="rotate(180,170,120)"/><rect x="165" y="135" width="10" height="10" transform="rotate(0,170,140)"/><rect x="165" y="165" width="10" height="10" transform="rotate(0,170,170)"/><rect x="165" y="175" width="10" height="10" transform="rotate(0,170,180)"/><path d="M 165 185v 10h 10a 10 10, 0, 0, 0, -10 -10" transform="rotate(90,170,190)"/><path d="M 165 205v 10h 10a 10 10, 0, 0, 0, -10 -10" transform="rotate(-90,170,210)"/><path d="M 165 215v 10h 10a 10 10, 0, 0, 0, -10 -10" transform="rotate(90,170,220)"/><path d="M 165 235v 10h 5a 5 5, 0, 0, 0, 0 -10" transform="rotate(180,170,240)"/><path d="M 165 255v 10h 5a 5 5, 0, 0, 0, 0 -10" transform="rotate(0,170,260)"/><path d="M 175 15v 10h 5a 5 5, 0, 0, 0, 0 -10" transform="rotate(0,180,20)"/><rect x="175" y="35" width="10" height="10" transform="rotate(0,180,40)"/><path d="M 175 45v 10h 10a 10 10, 0, 0, 0, -10 -10" transform="rotate(180,180,50)"/><rect x="175" y="75" width="10" height="10" transform="rotate(0,180,80)"/><rect x="175" y="85" width="10" height="10" transform="rotate(0,180,90)"/><path d="M 175 95v 10h 10a 10 10, 0, 0, 0, -10 -10" transform="rotate(90,180,100)"/><rect x="175" y="115" width="10" height="10" transform="rotate(0,180,120)"/><rect x="175" y="125" width="10" height="10" transform="rotate(0,180,130)"/><path d="M 175 135v 10h 10a 10 10, 0, 0, 0, -10 -10" transform="rotate(90,180,140)"/><rect x="175" y="165" width="10" height="10" transform="rotate(0,180,170)"/><path d="M 175 175v 10h 10a 10 10, 0, 0, 0, -10 -10" transform="rotate(90,180,180)"/><path d="M 175 205v 10h 5a 5 5, 0, 0, 0, 0 -10" transform="rotate(0,180,210)"/><rect x="175" y="235" width="10" height="10" transform="rotate(0,180,240)"/><circle cx="180" cy="270" r="5" transform="rotate(0,180,270)"/><circle cx="190" cy="10" r="5" transform="rotate(0,190,10)"/><rect x="185" y="35" width="10" height="10" transform="rotate(0,190,40)"/><path d="M 185 45v 10h 10a 10 10, 0, 0, 0, -10 -10" transform="rotate(90,190,50)"/><path d="M 185 65v 10h 5a 5 5, 0, 0, 0, 0 -10" transform="rotate(-90,190,70)"/><path d="M 185 75v 10h 10a 10 10, 0, 0, 0, -10 -10" transform="rotate(90,190,80)"/><path d="M 185 115v 10h 5a 5 5, 0, 0, 0, 0 -10" transform="rotate(0,190,120)"/><path d="M 185 145v 10h 10a 10 10, 0, 0, 0, -10 -10" transform="rotate(-90,190,150)"/><rect x="185" y="155" width="10" height="10" transform="rotate(0,190,160)"/><path d="M 185 165v 10h 10a 10 10, 0, 0, 0, -10 -10" transform="rotate(90,190,170)"/><path d="M 185 225v 10h 10a 10 10, 0, 0, 0, -10 -10" transform="rotate(-90,190,230)"/><rect x="185" y="235" width="10" height="10" transform="rotate(0,190,240)"/><rect x="185" y="245" width="10" height="10" transform="rotate(0,190,250)"/><path d="M 185 255v 10h 5a 5 5, 0, 0, 0, 0 -10" transform="rotate(90,190,260)"/><rect x="195" y="35" width="10" height="10" transform="rotate(0,200,40)"/><path d="M 195 85v 10h 5a 5 5, 0, 0, 0, 0 -10" transform="rotate(-90,200,90)"/><rect x="195" y="95" width="10" height="10" transform="rotate(0,200,100)"/><path d="M 195 105v 10h 10a 10 10, 0, 0, 0, -10 -10" transform="rotate(180,200,110)"/><circle cx="200" cy="130" r="5" transform="rotate(0,200,130)"/><path d="M 195 145v 10h 5a 5 5, 0, 0, 0, 0 -10" transform="rotate(0,200,150)"/><path d="M 195 175v 10h 10a 10 10, 0, 0, 0, -10 -10" transform="rotate(-90,200,180)"/><path d="M 195 185v 10h 10a 10 10, 0, 0, 0, -10 -10" transform="rotate(180,200,190)"/><path d="M 195 205v 10h 10a 10 10, 0, 0, 0, -10 -10" transform="rotate(-90,200,210)"/><rect x="195" y="215" width="10" height="10" transform="rotate(0,200,220)"/><rect x="195" y="225" width="10" height="10" transform="rotate(0,200,230)"/><path d="M 195 265v 10h 5a 5 5, 0, 0, 0, 0 -10" transform="rotate(180,200,270)"/><circle cx="210" cy="20" r="5" transform="rotate(0,210,20)"/><path d="M 205 35v 10h 10a 10 10, 0, 0, 0, -10 -10" transform="rotate(0,210,40)"/><rect x="205" y="45" width="10" height="10" transform="rotate(0,210,50)"/><rect x="205" y="55" width="10" height="10" transform="rotate(0,210,60)"/><path d="M 205 65v 10h 5a 5 5, 0, 0, 0, 0 -10" transform="rotate(90,210,70)"/><rect x="205" y="105" width="10" height="10" transform="rotate(0,210,110)"/><path d="M 205 115v 10h 5a 5 5, 0, 0, 0, 0 -10" transform="rotate(90,210,120)"/><path d="M 205 165v 10h 5a 5 5, 0, 0, 0, 0 -10" transform="rotate(-90,210,170)"/><rect x="205" y="175" width="10" height="10" transform="rotate(0,210,180)"/><path d="M 205 185v 10h 10a 10 10, 0, 0, 0, -10 -10" transform="rotate(90,210,190)"/><rect x="205" y="205" width="10" height="10" transform="rotate(0,210,210)"/><rect x="205" y="215" width="10" height="10" transform="rotate(0,210,220)"/><rect x="205" y="225" width="10" height="10" transform="rotate(0,210,230)"/><rect x="205" y="235" width="10" height="10" transform="rotate(0,210,240)"/><rect x="205" y="245" width="10" height="10" transform="rotate(0,210,250)"/><rect x="205" y="255" width="10" height="10" transform="rotate(0,210,260)"/><rect x="205" y="265" width="10" height="10" transform="rotate(0,210,270)"/><path d="M 205 275v 10h 10a 10 10, 0, 0, 0, -10 -10" transform="rotate(180,210,280)"/><circle cx="220" cy="90" r="5" transform="rotate(0,220,90)"/><rect x="215" y="105" width="10" height="10" transform="rotate(0,220,110)"/><path d="M 215 125v 10h 5a 5 5, 0, 0, 0, 0 -10" transform="rotate(-90,220,130)"/><rect x="215" y="135" width="10" height="10" transform="rotate(0,220,140)"/><path d="M 215 145v 10h 10a 10 10, 0, 0, 0, -10 -10" transform="rotate(180,220,150)"/><path d="M 215 195v 10h 10a 10 10, 0, 0, 0, -10 -10" transform="rotate(-90,220,200)"/><rect x="215" y="205" width="10" height="10" transform="rotate(0,220,210)"/><rect x="215" y="245" width="10" height="10" transform="rotate(0,220,250)"/><path d="M 215 255v 10h 10a 10 10, 0, 0, 0, -10 -10" transform="rotate(90,220,260)"/><rect x="215" y="275" width="10" height="10" transform="rotate(0,220,280)"/><path d="M 215 285v 10h 5a 5 5, 0, 0, 0, 0 -10" transform="rotate(90,220,290)"/><path d="M 225 95v 10h 10a 10 10, 0, 0, 0, -10 -10" transform="rotate(-90,230,100)"/><rect x="225" y="105" width="10" height="10" transform="rotate(0,230,110)"/><path d="M 225 115v 10h 5a 5 5, 0, 0, 0, 0 -10" transform="rotate(90,230,120)"/><rect x="225" y="135" width="10" height="10" transform="rotate(0,230,140)"/><path d="M 225 145v 10h 10a 10 10, 0, 0, 0, -10 -10" transform="rotate(90,230,150)"/><circle cx="230" cy="180" r="5" transform="rotate(0,230,180)"/><path d="M 225 195v 10h 10a 10 10, 0, 0, 0, -10 -10" transform="rotate(0,230,200)"/><rect x="225" y="205" width="10" height="10" transform="rotate(0,230,210)"/><circle cx="230" cy="230" r="5" transform="rotate(0,230,230)"/><rect x="225" y="245" width="10" height="10" transform="rotate(0,230,250)"/><path d="M 225 265v 10h 5a 5 5, 0, 0, 0, 0 -10" transform="rotate(-90,230,270)"/><path d="M 225 275v 10h 10a 10 10, 0, 0, 0, -10 -10" transform="rotate(90,230,280)"/><path d="M 235 85v 10h 5a 5 5, 0, 0, 0, 0 -10" transform="rotate(-90,240,90)"/><rect x="235" y="95" width="10" height="10" transform="rotate(0,240,100)"/><path d="M 235 125v 10h 5a 5 5, 0, 0, 0, 0 -10" transform="rotate(-90,240,130)"/><path d="M 235 135v 10h 10a 10 10, 0, 0, 0, -10 -10" transform="rotate(90,240,140)"/><path d="M 235 155v 10h 10a 10 10, 0, 0, 0, -10 -10" transform="rotate(-90,240,160)"/><path d="M 235 165v 10h 5a 5 5, 0, 0, 0, 0 -10" transform="rotate(90,240,170)"/><path d="M 235 185v 10h 5a 5 5, 0, 0, 0, 0 -10" transform="rotate(180,240,190)"/><rect x="235" y="205" width="10" height="10" transform="rotate(0,240,210)"/><rect x="235" y="245" width="10" height="10" transform="rotate(0,240,250)"/><rect x="245" y="95" width="10" height="10" transform="rotate(0,250,100)"/><path d="M 245 115v 10h 5a 5 5, 0, 0, 0, 0 -10" transform="rotate(180,250,120)"/><path d="M 245 145v 10h 10a 10 10, 0, 0, 0, -10 -10" transform="rotate(-90,250,150)"/><path d="M 245 155v 10h 10a 10 10, 0, 0, 0, -10 -10" transform="rotate(90,250,160)"/><rect x="245" y="185" width="10" height="10" transform="rotate(0,250,190)"/><path d="M 245 205v 10h 10a 10 10, 0, 0, 0, -10 -10" transform="rotate(0,250,210)"/><rect x="245" y="215" width="10" height="10" transform="rotate(0,250,220)"/><rect x="245" y="225" width="10" height="10" transform="rotate(0,250,230)"/><rect x="245" y="235" width="10" height="10" transform="rotate(0,250,240)"/><rect x="245" y="245" width="10" height="10" transform="rotate(0,250,250)"/><rect x="245" y="255" width="10" height="10" transform="rotate(0,250,260)"/><path d="M 245 265v 10h 5a 5 5, 0, 0, 0, 0 -10" transform="rotate(90,250,270)"/><circle cx="250" cy="290" r="5" transform="rotate(0,250,290)"/><path d="M 255 85v 10h 10a 10 10, 0, 0, 0, -10 -10" transform="rotate(-90,260,90)"/><path d="M 255 95v 10h 10a 10 10, 0, 0, 0, -10 -10" transform="rotate(90,260,100)"/><rect x="255" y="115" width="10" height="10" transform="rotate(0,260,120)"/><path d="M 255 145v 10h 5a 5 5, 0, 0, 0, 0 -10" transform="rotate(0,260,150)"/><path d="M 255 165v 10h 10a 10 10, 0, 0, 0, -10 -10" transform="rotate(-90,260,170)"/><rect x="255" y="175" width="10" height="10" transform="rotate(0,260,180)"/><rect x="255" y="185" width="10" height="10" transform="rotate(0,260,190)"/><path d="M 255 195v 10h 5a 5 5, 0, 0, 0, 0 -10" transform="rotate(90,260,200)"/><path d="M 255 245v 10h 10a 10 10, 0, 0, 0, -10 -10" transform="rotate(0,260,250)"/><path d="M 255 255v 10h 10a 10 10, 0, 0, 0, -10 -10" transform="rotate(90,260,260)"/><circle cx="260" cy="280" r="5" transform="rotate(0,260,280)"/><rect x="265" y="85" width="10" height="10" transform="rotate(0,270,90)"/><rect x="265" y="115" width="10" height="10" transform="rotate(0,270,120)"/><rect x="265" y="125" width="10" height="10" transform="rotate(0,270,130)"/><path d="M 265 135v 10h 10a 10 10, 0, 0, 0, -10 -10" transform="rotate(180,270,140)"/><path d="M 265 155v 10h 5a 5 5, 0, 0, 0, 0 -10" transform="rotate(-90,270,160)"/><rect x="265" y="165" width="10" height="10" transform="rotate(0,270,170)"/><circle cx="270" cy="210" r="5" transform="rotate(0,270,210)"/><circle cx="270" cy="240" r="5" transform="rotate(0,270,240)"/><circle cx="270" cy="270" r="5" transform="rotate(0,270,270)"/><circle cx="270" cy="290" r="5" transform="rotate(0,270,290)"/><path d="M 275 85v 10h 5a 5 5, 0, 0, 0, 0 -10" transform="rotate(0,280,90)"/><path d="M 275 105v 10h 5a 5 5, 0, 0, 0, 0 -10" transform="rotate(-90,280,110)"/><rect x="275" y="115" width="10" height="10" transform="rotate(0,280,120)"/><rect x="275" y="135" width="10" height="10" transform="rotate(0,280,140)"/><rect x="275" y="165" width="10" height="10" transform="rotate(0,280,170)"/><path d="M 275 195v 10h 5a 5 5, 0, 0, 0, 0 -10" transform="rotate(180,280,200)"/><path d="M 275 245v 10h 5a 5 5, 0, 0, 0, 0 -10" transform="rotate(-90,280,250)"/><path d="M 275 255v 10h 5a 5 5, 0, 0, 0, 0 -10" transform="rotate(90,280,260)"/><path d="M 275 275v 10h 5a 5 5, 0, 0, 0, 0 -10" transform="rotate(180,280,280)"/><path d="M 285 115v 10h 5a 5 5, 0, 0, 0, 0 -10" transform="rotate(0,290,120)"/><path d="M 285 135v 10h 10a 10 10, 0, 0, 0, -10 -10" transform="rotate(0,290,140)"/><rect x="285" y="145" width="10" height="10" transform="rotate(0,290,150)"/><rect x="285" y="155" width="10" height="10" transform="rotate(0,290,160)"/><path d="M 285 165v 10h 10a 10 10, 0, 0, 0, -10 -10" transform="rotate(90,290,170)"/><path d="M 285 185v 10h 5a 5 5, 0, 0, 0, 0 -10" transform="rotate(-90,290,190)"/><rect x="285" y="195" width="10" height="10" transform="rotate(0,290,200)"/><rect x="285" y="205" width="10" height="10" transform="rotate(0,290,210)"/><path d="M 285 215v 10h 5a 5 5, 0, 0, 0, 0 -10" transform="rotate(90,290,220)"/><circle cx="290" cy="240" r="5" transform="rotate(0,290,240)"/><path d="M 285 275v 10h 5a 5 5, 0, 0, 0, 0 -10" transform="rotate(0,290,280)"/></g><g class="green-dots"/><g class="corners-square-color-0-0"><path clip-rule="evenodd" d="M 5 15v 50a 10 10, 0, 0, 0, 10 10h 50a 10 10, 0, 0, 0, 10 -10v -50a 10 10, 0, 0, 0, -10 -10h -50a 10 10, 0, 0, 0, -10 10zM 20 15h 40a 5 5, 0, 0, 1, 5 5v 40a 5 5, 0, 0, 1, -5 5h -40a 5 5, 0, 0, 1, -5 -5v -40a 5 5, 0, 0, 1, 5 -5z" transform="rotate(0,40,40)"/></g><g class="corners-dot-color-0-0"><rect x="25" y="25" width="30" height="30" transform="rotate(0,40,40)"/></g><g class="corners-square-color-1-0"><path clip-rule="evenodd" d="M 225 15v 50a 10 10, 0, 0, 0, 10 10h 50a 10 10, 0, 0, 0, 10 -10v -50a 10 10, 0, 0, 0, -10 -10h -50a 10 10, 0, 0, 0, -10 10zM 240 15h 40a 5 5, 0, 0, 1, 5 5v 40a 5 5, 0, 0, 1, -5 5h -40a 5 5, 0, 0, 1, -5 -5v -40a 5 5, 0, 0, 1, 5 -5z" transform="rotate(90,260,40)"/></g><g class="corners-dot-color-1-0"><rect x="245" y="25" width="30" height="30" transform="rotate(90,260,40)"/></g><g class="corners-square-color-0-1"><path clip-rule="evenodd" d="M 5 235v 50a 10 10, 0, 0, 0, 10 10h 50a 10 10, 0, 0, 0, 10 -10v -50a 10 10, 0, 0, 0, -10 -10h -50a 10 10, 0, 0, 0, -10 10zM 20 235h 40a 5 5, 0, 0, 1, 5 5v 40a 5 5, 0, 0, 1, -5 5h -40a 5 5, 0, 0, 1, -5 -5v -40a 5 5, 0, 0, 1, 5 -5z" transform="rotate(-90,40,260)"/></g><g class="corners-dot-color-0-1"><rect x="25" y="245" width="30" height="30" transform="rotate(-90,40,260)"/></g></svg></g></svg></svg>